<svg width="32" height="50" viewBox="0 0 32 50" fill="none" xmlns="http://www.w3.org/2000/svg">
<g opacity="0.3">
<path d="M10 8.7788L16 15L22 8.7788H17.5L17.6364 0L14.6364 0L14.5 8.7788H10Z" fill="#083E57"/>
<path d="M16.0018 18C7.16076 17.9963 0 25.3482 0 34.4223C0 41.5979 4.4795 47.6975 10.7179 49.9376C11.558 50.1542 11.4293 49.541 11.4293 49.1223V46.2763C6.57804 46.8602 6.38141 43.5625 6.05608 43.0117C5.39828 41.8586 3.84315 41.5648 4.3079 41.014C5.41258 40.4301 6.53871 41.1609 7.84359 43.1402C8.7874 44.5761 10.6285 44.3337 11.5616 44.095C11.7654 43.232 12.2015 42.4609 12.8021 41.8623C7.77567 40.9369 5.68071 37.7861 5.68071 34.0404C5.68071 32.2226 6.26343 30.5518 7.40744 29.204C6.67814 26.9823 7.47537 25.0801 7.58262 24.7973C9.6597 24.6064 11.819 26.325 11.987 26.4609C13.1668 26.134 14.5146 25.9614 16.0232 25.9614C17.539 25.9614 18.8904 26.1414 20.0809 26.4719C20.4849 26.1561 22.4869 24.6798 24.4174 24.8598C24.5211 25.1425 25.3004 27.0007 24.614 29.193C25.7723 30.5444 26.3622 32.23 26.3622 34.0514C26.3622 37.8045 24.2529 40.9589 19.2122 41.8696C19.6439 42.3058 19.9867 42.8259 20.2206 43.3997C20.4545 43.9735 20.5747 44.5894 20.5742 45.2114V49.3427C20.6028 49.6732 20.5742 50 21.1105 50C27.4419 47.8077 32 41.664 32 34.426C32 25.3482 24.8357 18 16.0018 18Z" fill="#083E57"/>
</g>
<g opacity="0.4">
<path d="M10 8.7788L16 15L22 8.7788H17.5L17.6364 0L14.6364 0L14.5 8.7788H10Z" fill="#083E57"/>
<path d="M16.0018 18C7.16076 17.9963 0 25.3482 0 34.4223C0 41.5979 4.4795 47.6975 10.7179 49.9376C11.558 50.1542 11.4293 49.541 11.4293 49.1223V46.2763C6.57804 46.8602 6.38141 43.5625 6.05608 43.0117C5.39828 41.8586 3.84315 41.5648 4.3079 41.014C5.41258 40.4301 6.53871 41.1609 7.84359 43.1402C8.7874 44.5761 10.6285 44.3337 11.5616 44.095C11.7654 43.232 12.2015 42.4609 12.8021 41.8623C7.77567 40.9369 5.68071 37.7861 5.68071 34.0404C5.68071 32.2226 6.26343 30.5518 7.40744 29.204C6.67814 26.9823 7.47537 25.0801 7.58262 24.7973C9.6597 24.6064 11.819 26.325 11.987 26.4609C13.1668 26.134 14.5146 25.9614 16.0232 25.9614C17.539 25.9614 18.8904 26.1414 20.0809 26.4719C20.4849 26.1561 22.4869 24.6798 24.4174 24.8598C24.5211 25.1425 25.3004 27.0007 24.614 29.193C25.7723 30.5444 26.3622 32.23 26.3622 34.0514C26.3622 37.8045 24.2529 40.9589 19.2122 41.8696C19.6439 42.3058 19.9867 42.8259 20.2206 43.3997C20.4545 43.9735 20.5747 44.5894 20.5742 45.2114V49.3427C20.6028 49.6732 20.5742 50 21.1105 50C27.4419 47.8077 32 41.664 32 34.426C32 25.3482 24.8357 18 16.0018 18Z" fill="#083E57"/>
</g>
</svg>
